<svg xmlns="http://www.w3.org/2000/svg" width="1200" height="630" viewBox="0 0 1200 630">
  <rect width="1200" height="630" fill="#050507"/>
  <g transform="translate(375,250)">
    <svg viewBox="80 420 840 170" width="450" height="90" fill="white">
      <polygon points="231.7,573.7 370,426.3 430.5,426.3 468.8,573.7 348.9,573.7 348.9,541.4 403.7,541.4 390,488.4 304,573.7"/>
      <path d="M684,426.3H517l-48.2,147.4H634l22.9-14.7l36.9-113.3L684,426.3z M596.5,541.8H547l26.9-82.6h49.5L596.5,541.8z"/>
      <polygon points="775.7,459.1 766.2,488.2 848.3,488.2 840.5,511.8 758.5,511.8 748.7,541.8 858.7,541.8 848.3,573.7 674.4,573.7 722.4,426.3 896.3,426.3 885.6,459.1"/>
      <polygon points="207,458.6 197.7,487.8 275.6,488.4 254.3,511 190.1,511 169.9,573.7 103.7,573.7 151.8,426.3 333.8,426.3 303.2,458.9"/>
    </svg>
  </g>
  <text x="600" y="380" text-anchor="middle" fill="#3b82f6" font-family="sans-serif" font-size="20" font-weight="700" letter-spacing="6">BET TOGETHER</text>
</svg>
